<?xml version="1.0" encoding="utf-8"?>
<!-- Generator: Adobe Illustrator 25.0.1, SVG Export Plug-In . SVG Version: 6.00 Build 0)  -->
<svg version="1.0" id="Layer_1" xmlns="http://www.w3.org/2000/svg" xmlns:xlink="http://www.w3.org/1999/xlink" x="0px" y="0px"
	 viewBox="0 0 139 96" style="enable-background:new 0 0 139 96;" xml:space="preserve">
<style type="text/css">
	.st0{fill:#FF7175;}
</style>
<g>
	<path class="st0" d="M29.4,52.9c-0.2,0.7-0.4,1.4-0.6,2.2l-0.6,2.3c-0.2,0.7-0.3,1.2-0.4,1.7c-0.1,0.7-0.7,1.2-1.4,1.3
		c-0.7,0.1-1.4,0.1-2.1-0.2C23.7,60,23,59.5,22.5,59c-0.6-0.6-0.9-1.4-0.9-2.2c0.1-1.2,0.3-2.3,0.6-3.4c0.4-1.5,0.9-3.4,1.5-5.5
		c0.7-2.3,1.5-4.5,2.4-6.8c0.8-2.1,1.7-4.2,2.6-6.2c0.3-0.7,1-1.1,1.7-1.2c1.5-0.2,3-0.2,4.4,0.1c0.7,0.1,1.1,0.8,0.9,1.4
		c0,0.1,0,0.2-0.1,0.2c-0.8,1.7-1.5,3.5-2.2,5.3c-0.5,1.4-1,2.7-1.5,4.1c0,0.1,0,0.2,0.1,0.2c0,0,0.1,0,0.1,0
		c0.7-0.3,1.3-0.7,1.9-1.1c1-0.6,1.9-1.4,2.8-2.3c0.8-0.9,1.5-1.9,2-3c0.5-1.1,0.8-2.3,0.8-3.5c0.1-1.3-0.4-2.6-1.3-3.5
		c-1.1-0.8-2.4-1.1-3.7-1c-1.6,0-3.1,0.4-4.5,1.2c-1.3,0.7-2.5,1.7-3.5,2.8c-0.9,1.1-1.7,2.3-2.3,3.6c-0.5,1-0.7,2.1-0.8,3.2
		c0,0.6-0.4,1.2-1,1.3c-0.6,0.2-1.2,0.1-1.8-0.1c-0.6-0.3-1.2-0.7-1.6-1.3c-0.6-0.8-0.8-1.7-0.8-2.6c0.1-1.2,0.5-2.4,1.1-3.4
		c0.8-1.4,1.9-2.7,3.1-3.7c1.5-1.3,3.3-2.3,5.2-3.1c2.3-0.9,4.7-1.3,7.1-1.3c1.5,0,3,0.1,4.5,0.5c1.4,0.3,2.8,0.8,4,1.6
		c1.1,0.7,2.1,1.6,2.8,2.7c0.8,1.1,1.1,2.4,1.1,3.7c0,1.4-0.3,2.9-1,4.2c-0.7,1.3-1.6,2.4-2.7,3.4c-1.2,1-2.5,1.9-3.9,2.6
		c-1.2,0.6-2.5,1.1-3.8,1.6c-0.1,0-0.1,0.1-0.1,0.2c0,0.7,0.1,1.3,0.1,1.9s0.2,1.4,0.3,2.1s0.3,1.3,0.4,1.9c0.2,0.7,0.4,1.4,0.7,2.2
		c0.2,0.5,0.5,1,0.8,1.4c0.2,0.4,0.5,0.8,0.8,1.2c0.3,0.4,0.5,0.7,0.9,1.1c0.3,0.3,0.6,0.6,0.9,0.9c0.3,0.3,0.6,0.5,1,0.7
		c1,0.6,2,0.9,3.2,1c0.4,0,0.8,0,1.1,0c0.4-0.1,0.8-0.1,1.2-0.2c0.4-0.1,0.8-0.2,1.2-0.4c0.6-0.2,1.2-0.5,1.8-0.8
		c0.5-0.3,1.2-0.2,1.5,0.3c0.4,0.5,0.3,1.2-0.2,1.6c-0.7,0.6-1.5,1.2-2.3,1.8c-0.5,0.4-1,0.7-1.5,1l-0.8,0.4c-0.5,0.3-1,0.5-1.6,0.7
		c-0.5,0.2-1,0.3-1.5,0.5c-0.5,0.1-1,0.2-1.5,0.3c-0.5,0-1,0-1.5,0c-0.7,0-1.4-0.1-2.1-0.3c-0.7-0.2-1.3-0.4-1.9-0.8
		c-0.4-0.2-0.8-0.5-1.2-0.8c-0.3-0.2-0.6-0.5-0.9-0.7c-0.4-0.3-0.7-0.6-1-1c-0.3-0.4-0.6-0.8-0.9-1.2c-0.3-0.4-0.5-0.9-0.7-1.4
		c-0.2-0.5-0.5-1-0.7-1.5s-0.4-1-0.6-1.6s-0.3-1.1-0.5-1.7c-0.1-0.6-0.3-1.2-0.3-1.8s-0.2-1.1-0.2-1.7c0-0.1-0.1-0.1-0.2-0.1
		C29.5,52.8,29.4,52.8,29.4,52.9"/>
</g>
<path class="st0" d="M119.4,31c0,2.5-2,4.5-4.4,4.5c-2.5,0-4.5-2-4.5-4.4c0-2.5,2-4.5,4.4-4.5c0,0,0.1,0,0.1,0
	C117.5,26.6,119.5,28.6,119.4,31C119.5,31,119.5,31,119.4,31 M98.2,43.2c-0.2,0.9-0.4,1.8-0.7,2.7c-0.3,1.1-0.7,2.1-1.1,3.1
	c-0.5,1-1,2-1.5,3c-0.4,0.8-0.9,1.6-1.5,2.3c-0.4,0.5-0.8,0.9-1.3,1.3c-0.1,0.1-0.3,0.2-0.5,0.2h-0.1c-0.1,0-0.2-0.1-0.3-0.7
	c-0.1-0.6,0-1.3,0.1-1.9c0.2-0.9,0.4-1.8,0.7-2.7c0.3-1.1,0.7-2.1,1.1-3.1c0.4-1,0.9-2,1.5-3c0.5-0.8,1-1.5,1.5-2.3
	c0.4-0.5,0.8-0.9,1.3-1.3c0.1-0.1,0.3-0.2,0.5-0.2h0c0,0,0.2,0.1,0.3,0.7C98.3,41.9,98.3,42.5,98.2,43.2 M78.1,43.2
	c-0.2,0.9-0.4,1.8-0.7,2.7c-0.3,1.1-0.7,2.1-1.1,3.2c-0.5,1-1,2-1.5,3c-0.4,0.8-0.9,1.6-1.5,2.3c-0.4,0.5-0.8,0.9-1.3,1.3
	c-0.1,0.1-0.3,0.2-0.5,0.2h-0.1c0,0-0.2-0.1-0.3-0.7c-0.1-0.6,0-1.3,0.1-1.9c0.2-0.9,0.4-1.8,0.7-2.7c0.3-1.1,0.7-2.1,1.1-3.1
	c0.4-1,0.9-2,1.5-3c0.5-0.8,1-1.5,1.5-2.2c0.4-0.5,0.8-0.9,1.3-1.3c0.1-0.1,0.3-0.2,0.5-0.2h0.1c0,0,0.2,0.1,0.3,0.7
	C78.3,42,78.2,42.6,78.1,43.2 M56.4,43.2c-0.1,0.9-0.3,1.8-0.5,2.7c-0.3,1.1-0.6,2.1-1,3.1c-0.4,1-0.8,2-1.3,3
	c-0.4,0.8-0.8,1.5-1.4,2.2c-0.3,0.5-0.7,0.9-1.2,1.2c-0.1,0.1-0.3,0.2-0.5,0.2h-0.1c0,0-0.2-0.1-0.3-0.7c-0.1-0.6-0.1-1.3,0-1.9
	c0.1-0.9,0.2-1.8,0.5-2.7c0.3-1.1,0.6-2.1,1-3.1c0.4-1,0.8-2,1.3-3c0.4-0.8,0.9-1.5,1.4-2.3c0.3-0.5,0.8-0.9,1.2-1.3
	c0.1-0.1,0.3-0.2,0.5-0.2h0c0,0,0.2,0.1,0.3,0.7C56.4,41.9,56.4,42.5,56.4,43.2 M118.3,48.9c-0.2-0.3-0.6-0.6-1.1-0.5
	c-0.4,0-0.8,0.2-1,0.5c-0.3,0.4-0.6,0.8-1,1.3c-0.4,0.6-0.8,1.1-1.3,1.6c-0.4,0.5-0.9,0.9-1.4,1.3c-0.2,0.2-0.6,0.4-0.9,0.4
	c-0.1,0-0.3,0-0.4-0.6c0-0.8,0.1-1.5,0.3-2.3c0.3-1.1,0.6-2.1,1-3.1c0.8-2,1.6-4,2.4-5.9c0.3-0.7,0.5-1.2,0.6-1.4
	c0.3-0.6,0.2-1.3-0.3-1.7c-0.4-0.5-1-0.8-1.7-1c-0.7-0.2-1.4-0.2-2.2,0c-0.8,0.2-1.5,0.7-1.9,1.4c-0.6,1-1.1,2-1.6,3
	c-0.7,1.5-1.3,3-1.8,4.5c-0.3,1-0.7,2-1,3c-0.5,1.7-1.5,3.2-2.8,4.3c-0.5,0.4-1,0.8-1.5,1.1c-0.2,0.2-0.5,0.3-0.7,0.4
	c0,0-0.1,0-0.1,0c0,0,0-0.1,0-0.1c0.4-0.5,0.8-1.1,1.2-1.8c0.9-1.4,1.6-3,2.2-4.6c0.6-1.6,1.1-3.3,1.3-5c0.2-1.3,0.1-2.6-0.2-3.9
	c-0.2-1-0.7-1.9-1.5-2.6c-0.7-0.7-1.7-1-2.7-1c-1.2,0-2.4,0.3-3.4,1c-0.7,0.4-1.3,0.9-1.9,1.5c0,0-0.1,0-0.1,0
	c-0.1-0.2-0.3-0.4-0.5-0.6c-0.5-0.4-1.1-0.7-1.8-0.8c-0.7-0.1-1.4-0.1-2,0.1c-0.7,0.2-1.3,0.7-1.6,1.4c-0.7,1.6-1.4,3.2-2,4.8
	c-0.8,2.1-1.6,4.1-2.3,6.2c-0.6,1.6-1.6,3.1-3,4.1c-0.4,0.3-0.7,0.5-1.1,0.8c-0.2,0.2-0.5,0.3-0.7,0.4c0,0-0.1,0-0.1,0
	c0,0,0-0.1,0-0.1c0.4-0.6,0.8-1.2,1.2-1.8c0.9-1.4,1.6-3,2.2-4.6c0.6-1.6,1.1-3.3,1.3-5c0.2-1.3,0.1-2.6-0.1-3.9
	c-0.2-1-0.7-1.9-1.5-2.6c-0.7-0.7-1.7-1-2.7-1c-1.2,0-2.4,0.3-3.4,1c-0.7,0.4-1.3,0.9-1.9,1.5c0,0-0.1,0-0.1,0
	c-0.1-0.2-0.3-0.4-0.5-0.6c-0.5-0.4-1.1-0.7-1.8-0.8c-0.7-0.1-1.4-0.1-2,0.1c-0.7,0.2-1.3,0.7-1.6,1.4c-0.7,1.6-1.4,3.2-2,4.8
	c-0.7,1.7-1.3,3.5-1.9,5.2c-0.4,1.3-1.2,2.5-2.2,3.4c-0.3,0.2-0.5,0.5-0.8,0.7c-0.2,0.2-0.6,0.4-0.9,0.4c-0.1,0-0.3,0-0.4-0.6
	c0-0.8,0.1-1.5,0.3-2.3c0.3-1.1,0.6-2.1,1-3.1c0.4-1.1,0.9-2.2,1.3-3.2c0.4-1,0.8-1.9,1.2-2.7c0.2-0.5,0.4-0.9,0.6-1.4
	c0.3-0.6,0.2-1.3-0.3-1.7c-0.4-0.5-1-0.8-1.7-1c-0.7-0.2-1.4-0.2-2.2,0c-0.8,0.2-1.5,0.7-1.9,1.4l-0.3,0.5c0,0-0.1,0.1-0.1,0
	c0,0,0,0,0,0c-0.1-0.4-0.2-0.8-0.4-1.1c-0.3-0.6-0.8-1-1.3-1.3c-0.6-0.4-1.4-0.5-2.1-0.5c-2.3,0.1-4.4,1.1-6,2.7
	c-2,1.8-3.6,4.5-4.8,8.3c-0.5,1.6-0.9,3.3-1,5c-0.1,1.3,0,2.6,0.4,3.9c0.3,1,0.9,1.9,1.6,2.6c0.8,0.6,1.7,1,2.7,1
	c0.8,0,1.5-0.1,2.2-0.4c0.6-0.3,1.3-0.6,1.8-1c0.4-0.3,0.8-0.6,1.2-1c0.2-0.2,0.5-0.2,0.7,0c0.1,0.1,0.1,0.1,0.1,0.2
	c0.1,0.4,0.3,0.7,0.5,1c0.6,0.8,1.5,1.2,2.4,1.1c1.3,0,2.6-0.5,3.7-1.3c0.6-0.4,1.1-0.9,1.7-1.3c0.1-0.1,0.2-0.1,0.2,0
	c0,0,0,0.1,0,0.1c-0.3,1-0.6,2-0.8,2.9c-0.4,1.5-0.7,2.8-1,3.8c-0.2,0.7-0.3,1.3-0.4,2c0,0.8,0.3,1.6,0.8,2.2c0.5,0.5,1.1,1,1.8,1.2
	c0.4,0.1,0.8,0.2,1.3,0.2c0.2,0,0.4,0,0.6-0.1c0.7-0.1,1.2-0.6,1.3-1.3l0,0c0.1-0.5,0.2-1.1,0.4-1.9c0.2-0.8,0.4-1.7,0.7-2.7
	s0.6-2.1,1-3.4c0.2-0.6,0.4-1.2,0.6-1.9c0-0.1,0.1-0.1,0.2-0.1c0,0,0.1,0,0.1,0.1c0.1,0.2,0.2,0.3,0.3,0.4c0.7,0.8,1.8,1.3,2.9,1.2
	H73c1.8,0,3.6-0.3,5.3-1c1.5-0.6,2.9-1.3,4.2-2.2c0.1,0,0.2,0,0.2,0c0,0,0,0.1,0,0.1c-0.3,1.1-0.7,2.2-1,3.3c-0.4,1.3-0.7,2.5-1,3.8
	c-0.2,0.7-0.3,1.3-0.4,2c0,0.8,0.3,1.6,0.8,2.2c0.5,0.5,1.1,0.9,1.8,1.2c0.4,0.1,0.8,0.2,1.3,0.2c0.2,0,0.4,0,0.7-0.1
	c0.7-0.1,1.2-0.7,1.2-1.3l0,0c0.1-0.5,0.2-1.1,0.4-1.9c0.2-0.8,0.4-1.7,0.7-2.7s0.6-2.1,1-3.4c0.2-0.6,0.4-1.2,0.6-1.9
	c0-0.1,0.1-0.1,0.2-0.1c0,0,0.1,0,0.1,0.1c0.1,0.2,0.2,0.3,0.3,0.4c0.7,0.8,1.8,1.3,2.9,1.2h0.8c1.8,0,3.6-0.3,5.3-1
	c1.7-0.7,3.4-1.6,4.9-2.7l0.7-0.5c0.1-0.1,0.2,0,0.2,0c0,0,0,0.1,0,0.1V56c0,1,0.2,1.9,0.7,2.7c0.6,0.8,1.5,1.2,2.4,1.1
	c1.3-0.1,2.6-0.5,3.6-1.3c1.2-0.9,2.3-1.9,3.3-3c0.9-1,1.8-2.1,2.6-3.3c0.5-0.7,1-1.5,1.5-2.3C118.6,49.7,118.6,49.2,118.3,48.9"/>
</svg>
